<svg width="20" height="19" viewBox="0 0 20 19" fill="none" xmlns="http://www.w3.org/2000/svg">
    <path d="M8.60886 0.580202L6.80024 0.11031C6.02065 -0.0958616 5.19083 0.0146509 4.49292 0.41759C3.79501 0.820529 3.28604 1.48297 3.07774 2.2595L2.62537 3.96134C4.114 2.11486 6.25457 0.905269 8.60886 0.580202Z" fill="#375CE7"/>
    <path d="M0.675713 10.6885L0.23291 12.353C0.0265525 13.1297 0.137705 13.9562 0.541989 14.6513C0.946273 15.3465 1.61069 15.8534 2.38951 16.061L4.11461 16.5196C2.2735 15.0759 1.04568 12.9939 0.675713 10.6885Z" fill="#375CE7"/>
    <path d="M16.9276 2.9439L14.9928 2.43066C15.9709 3.18006 16.7898 4.1156 17.4021 5.18299C18.0144 6.25038 18.4078 7.42834 18.5596 8.6485L19.0911 6.64235C19.2944 5.86607 19.1808 5.04117 18.7754 4.34807C18.3699 3.65498 17.7055 3.15012 16.9276 2.9439Z" fill="#375CE7"/>
    <path d="M10.6686 18.4035L12.5233 18.902C13.3031 19.1078 14.133 18.9968 14.8308 18.5934C15.5286 18.19 16.0372 17.5271 16.2449 16.7502L16.7669 14.79C15.2916 16.7485 13.0998 18.0472 10.6686 18.4035Z" fill="#375CE7"/>
    <path d="M9.66281 1.30762C8.03633 1.30779 6.44643 1.78861 5.09416 2.68927C3.74189 3.58993 2.68799 4.86998 2.06572 6.36755C1.44345 7.86513 1.28077 9.51296 1.59825 11.1027C1.91573 12.6924 2.69911 14.1526 3.84932 15.2986C4.99954 16.4446 6.46493 17.225 8.06018 17.541C9.65544 17.8571 11.3089 17.6946 12.8115 17.0742C14.3141 16.4537 15.5984 15.4032 16.5018 14.0554C17.4053 12.7075 17.8875 11.123 17.8873 9.50212C17.8866 7.32871 17.0198 5.24455 15.4775 3.70788C13.9352 2.17121 11.8437 1.30785 9.66281 1.30762ZM5.00337 5.39533C5.09119 4.94076 5.31229 4.52234 5.63871 4.19299C5.96513 3.86363 6.38222 3.63812 6.83723 3.54497C7.29225 3.45183 7.76476 3.49522 8.19503 3.66967C8.6253 3.84413 8.994 4.1418 9.25453 4.52506C9.51505 4.90832 9.65569 5.35996 9.65867 5.82287C9.66165 6.28578 9.52684 6.73918 9.27127 7.12574C9.01571 7.5123 8.65086 7.81466 8.22288 7.9946C7.79489 8.17454 7.32297 8.22398 6.8668 8.13666C6.56379 8.07865 6.27522 7.96173 6.01758 7.79256C5.75993 7.62339 5.53825 7.40529 5.3652 7.15071C5.19216 6.89614 5.07114 6.61009 5.00905 6.3089C4.94697 6.0077 4.94504 5.69727 5.00337 5.39533ZM8.42139 12.4758C8.31794 13.0074 8.03271 13.4869 7.61431 13.8324C7.19591 14.178 6.67023 14.3683 6.12682 14.3709C5.58341 14.3735 5.05591 14.1883 4.63419 13.8468C4.21246 13.5052 3.92261 13.0286 3.81401 12.4979C3.70542 11.9673 3.7848 11.4156 4.03864 10.9367C4.29247 10.4579 4.70506 10.0816 5.20609 9.87192C5.70712 9.66225 6.2656 9.6322 6.78637 9.78687C7.30715 9.94155 7.758 10.2714 8.0621 10.7202C8.23474 10.975 8.35533 11.2611 8.41697 11.5624C8.47862 11.8636 8.48012 12.174 8.42139 12.4758ZM9.41835 10.5815C9.18116 10.5362 8.96705 10.4104 8.8125 10.2255C8.65795 10.0406 8.57251 9.80796 8.57074 9.5673C8.56897 9.32664 8.65099 9.09281 8.80281 8.90565C8.95463 8.71849 9.16687 8.58957 9.40337 8.54087C9.63987 8.49216 9.886 8.52667 10.0998 8.63852C10.3137 8.75037 10.482 8.93265 10.5761 9.15429C10.6702 9.37593 10.6843 9.62323 10.6159 9.85407C10.5476 10.0849 10.4011 10.285 10.2013 10.4202C10.0878 10.4971 9.96028 10.5508 9.82593 10.5785C9.69159 10.6062 9.55309 10.6072 9.41835 10.5815ZM14.3196 13.6046C14.2319 14.0591 14.0109 14.4775 13.6846 14.8069C13.3583 15.1363 12.9413 15.3618 12.4864 15.4551C12.0314 15.5484 11.559 15.5051 11.1287 15.3309C10.6984 15.1566 10.3296 14.8591 10.069 14.476C9.80833 14.0929 9.66749 13.6414 9.66428 13.1785C9.66106 12.7157 9.79561 12.2623 10.0509 11.8756C10.3062 11.489 10.6708 11.1864 11.0986 11.0062C11.5265 10.826 11.9983 10.7763 12.4545 10.8632C12.7575 10.9211 13.0462 11.038 13.304 11.2071C13.5617 11.3763 13.7835 11.5943 13.9566 11.8489C14.1297 12.1035 14.2508 12.3896 14.313 12.6908C14.3751 12.9921 14.3771 13.3026 14.3188 13.6046H14.3196ZM12.765 9.26977C12.2329 9.16634 11.7531 8.88227 11.4074 8.46595C11.0618 8.04963 10.8716 7.52678 10.8693 6.98643C10.867 6.44609 11.0527 5.92165 11.3948 5.50242C11.7369 5.08319 12.2142 4.79508 12.7455 4.68715C13.2768 4.57922 13.8292 4.65814 14.3087 4.91047C14.7881 5.16281 15.165 5.57296 15.3751 6.07108C15.5852 6.56921 15.6156 7.12452 15.4611 7.64245C15.3065 8.16039 14.9766 8.60894 14.5276 8.91172C14.2718 9.08387 13.9845 9.2041 13.682 9.26554C13.3796 9.32698 13.068 9.32842 12.765 9.26977Z" fill="#375CE7"/>
</svg>
