<svg width="12" height="14" viewBox="0 0 12 14" fill="none" xmlns="http://www.w3.org/2000/svg">
    <path d="M3.61388 10.9749H8.3861C8.5488 10.9749 8.68514 10.9224 8.79512 10.8175C8.9051 10.7126 8.96009 10.5836 8.96009 10.4304C8.96009 10.2773 8.9051 10.1498 8.79512 10.048C8.68514 9.9462 8.5488 9.8953 8.3861 9.8953H3.60948C3.44678 9.8953 3.31044 9.94706 3.20046 10.0506C3.09048 10.1541 3.03549 10.2825 3.03549 10.4356C3.03549 10.5888 3.09121 10.7169 3.20265 10.8201C3.3141 10.9233 3.45118 10.9749 3.61388 10.9749ZM3.61388 8.04454H8.3861C8.5488 8.04454 8.68514 7.99209 8.79512 7.8872C8.9051 7.78229 8.96009 7.65326 8.96009 7.5001C8.96009 7.34695 8.9051 7.21946 8.79512 7.11766C8.68514 7.01587 8.5488 6.96497 8.3861 6.96497H3.60948C3.44678 6.96497 3.31044 7.01674 3.20046 7.12026C3.09048 7.22379 3.03549 7.35213 3.03549 7.50529C3.03549 7.65845 3.09121 7.78661 3.20265 7.88979C3.3141 7.99296 3.45118 8.04454 3.61388 8.04454ZM1.25355 14C0.915013 14 0.621451 13.8836 0.372863 13.6507C0.124288 13.4178 0 13.1428 0 12.8256V1.17851C0 0.860229 0.124288 0.584245 0.372863 0.350554C0.621451 0.116852 0.915013 0 1.25355 0H7.37854C7.55133 0 7.71653 0.0328544 7.87412 0.0985627C8.03172 0.16426 8.16692 0.249946 8.27972 0.355622L11.6204 3.4853C11.7332 3.59097 11.8247 3.71763 11.8948 3.86527C11.9649 4.01292 12 4.16768 12 4.32956V12.8256C12 13.1428 11.8753 13.4178 11.6258 13.6507C11.3764 13.8836 11.0818 14 10.742 14H1.25355ZM7.26455 3.79745C7.26455 3.9632 7.32478 4.1025 7.44523 4.21536C7.5657 4.32821 7.7144 4.38463 7.89133 4.38463H10.742L7.26455 1.17851V3.79745Z" fill="#0E1924"/>
</svg>
