<svg width="360" height="380" viewBox="0 0 360 380" fill="none" xmlns="http://www.w3.org/2000/svg">
    <mask id="mask0_48_6508" style="mask-type:alpha" maskUnits="userSpaceOnUse" x="0" y="30" width="360" height="320">
        <rect width="360" height="320" transform="matrix(-1 0 0 1 360 30)" fill="url(#paint0_linear_48_6508)"/>
    </mask>
    <g mask="url(#mask0_48_6508)">
        <g filter="url(#filter0_d_48_6508)">
            <rect width="360" height="320" transform="matrix(-1 0 0 1 360 30)" fill="url(#paint1_linear_48_6508)"/>
        </g>
        <path d="M59.4955 401.028C54.2474 402.113 48.8193 400.316 45.2559 396.313L39.768 390.149C36.2046 386.146 35.0472 380.547 36.7318 375.459L39.3261 367.625C41.0108 362.537 45.2814 358.735 50.5295 357.65L58.6117 355.98C63.8597 354.895 69.2878 356.693 72.8513 360.695L78.3391 366.859C81.9026 370.862 83.06 376.461 81.3754 381.549L78.781 389.383C77.0964 394.471 72.8257 398.273 67.5777 399.358L59.4955 401.028Z" fill="#1A2C5D"/>
        <path d="M10.7137 376.636C5.46569 377.72 0.0375832 375.923 -3.52586 371.92L-9.0137 365.756C-12.5771 361.754 -13.7346 356.154 -12.0499 351.067L-9.45559 343.232C-7.77098 338.145 -3.50029 334.343 1.74776 333.258L9.82996 331.587C15.078 330.503 20.5061 332.3 24.0695 336.303L29.5574 342.467C33.1208 346.469 34.2782 352.069 32.5936 357.156L29.9993 364.991C28.3147 370.078 24.044 373.88 18.7959 374.965L10.7137 376.636Z" fill="#1A2C5D"/>
        <path d="M54.5073 346.703C49.2593 347.788 43.8312 345.99 40.2677 341.988L34.7799 335.824C31.2164 331.821 30.059 326.221 31.7436 321.134L34.338 313.3C36.0226 308.212 40.2933 304.41 45.5413 303.325L53.6235 301.655C58.8716 300.57 64.2997 302.367 67.8631 306.37L73.351 312.534C76.9144 316.537 78.0718 322.136 76.3872 327.224L73.7929 335.058C72.1083 340.146 67.8376 343.948 62.5895 345.032L54.5073 346.703Z" fill="#1A2C5D"/>
        <path d="M5.7257 321.203C0.477648 322.288 -4.95045 320.49 -8.5139 316.488L-14.0017 310.324C-17.5652 306.321 -18.7226 300.721 -17.038 295.634L-14.4436 287.8C-12.759 282.712 -8.48833 278.91 -3.24028 277.825L4.84192 276.155C10.09 275.07 15.5181 276.867 19.0815 280.87L24.5694 287.034C28.1328 291.037 29.2902 296.636 27.6056 301.724L25.0112 309.558C23.3266 314.646 19.0559 318.448 13.8079 319.532L5.7257 321.203Z" fill="#1A2C5D"/>
        <path d="M47.5277 287.665C42.2797 288.75 36.8515 286.953 33.2881 282.95L27.8003 276.786C24.2368 272.783 23.0794 267.184 24.764 262.097L27.3584 254.262C29.043 249.175 33.3137 245.372 38.5617 244.288L46.6439 242.617C51.892 241.532 57.3201 243.33 60.8835 247.332L66.3714 253.497C69.9348 257.499 71.0922 263.099 69.4076 268.186L66.8132 276.021C65.1286 281.108 60.8579 284.91 55.6099 285.995L47.5277 287.665Z" fill="#1A2C5D"/>
        <path d="M-1.25404 263.273C-6.50209 264.358 -11.9302 262.56 -15.4936 258.558L-20.9815 252.393C-24.5449 248.391 -25.7023 242.791 -24.0177 237.704L-21.4234 229.869C-19.7388 224.782 -15.4681 220.98 -10.22 219.895L-2.13782 218.225C3.11023 217.14 8.53833 218.937 12.1018 222.94L17.5896 229.104C21.1531 233.107 22.3105 238.706 20.6259 243.793L18.0315 251.628C16.3469 256.715 12.0762 260.518 6.82816 261.602L-1.25404 263.273Z" fill="#1A2C5D"/>
        <path d="M42.5395 233.34C37.2915 234.425 31.8634 232.628 28.2999 228.625L22.8121 222.461C19.2487 218.458 18.0913 212.859 19.7759 207.771L22.3702 199.937C24.0548 194.849 28.3255 191.047 33.5736 189.963L41.6558 188.292C46.9038 187.207 52.3319 189.005 55.8954 193.007L61.3832 199.171C64.9466 203.174 66.104 208.774 64.4194 213.861L61.8251 221.695C60.1405 226.783 55.8698 230.585 50.6217 231.67L42.5395 233.34Z" fill="#1A2C5D"/>
        <path d="M-6.24195 207.841C-11.49 208.925 -16.9181 207.128 -20.4815 203.125L-25.9694 196.961C-29.5328 192.959 -30.6902 187.359 -29.0056 182.272L-26.4113 174.437C-24.7267 169.35 -20.456 165.548 -15.2079 164.463L-7.12573 162.792C-1.87768 161.708 3.55042 163.505 7.11386 167.508L12.6017 173.672C16.1651 177.674 17.3226 183.274 15.6379 188.361L13.0436 196.196C11.359 201.283 7.08829 205.085 1.84024 206.17L-6.24195 207.841Z" fill="#1A2C5D"/>
        <path d="M219.774 348.809C218.084 353.895 213.81 357.692 208.561 358.771L200.477 360.433C195.227 361.513 189.801 359.709 186.242 355.703L180.761 349.533C177.201 345.527 176.05 339.926 177.74 334.841L180.343 327.009C182.033 321.923 186.307 318.125 191.556 317.046L199.64 315.384C204.89 314.305 210.316 316.108 213.875 320.115L219.356 326.284C222.916 330.291 224.067 335.892 222.377 340.977L219.774 348.809Z" fill="#1A2C5D"/>
        <path d="M174.228 378.813C172.538 383.899 168.263 387.697 163.014 388.776L154.93 390.438C149.681 391.517 144.255 389.714 140.696 385.708L135.214 379.538C131.655 375.531 130.504 369.93 132.194 364.845L134.796 357.013C136.486 351.927 140.761 348.13 146.01 347.051L154.094 345.389C159.343 344.309 164.769 346.113 168.329 350.119L173.81 356.289C177.369 360.295 178.521 365.896 176.831 370.981L174.228 378.813Z" fill="#1A2C5D"/>
        <path d="M170.256 325.915C168.566 331.001 164.291 334.799 159.042 335.878L150.958 337.54C145.709 338.619 140.283 336.816 136.724 332.81L131.242 326.64C127.683 322.633 126.532 317.033 128.222 311.947L130.824 304.115C132.514 299.03 136.789 295.232 142.038 294.153L150.122 292.491C155.371 291.411 160.797 293.215 164.357 297.221L169.838 303.391C173.397 307.397 174.549 312.998 172.859 318.084L170.256 325.915Z" fill="#1A2C5D"/>
        <path d="M123.751 355.363C122.061 360.449 117.787 364.246 112.538 365.326L104.454 366.988C99.2044 368.067 93.7782 366.264 90.219 362.257L84.7376 356.087C81.1784 352.081 80.0269 346.48 81.7169 341.395L84.3195 333.563C86.0095 328.477 90.2842 324.68 95.5334 323.6L103.617 321.938C108.867 320.859 114.293 322.662 117.852 326.669L123.333 332.839C126.892 336.845 128.044 342.446 126.354 347.531L123.751 355.363Z" fill="#1A2C5D"/>
    </g>
    <defs>
        <filter id="filter0_d_48_6508" x="-30" y="0" width="420" height="380" filterUnits="userSpaceOnUse" color-interpolation-filters="sRGB">
            <feFlood flood-opacity="0" result="BackgroundImageFix"/>
            <feColorMatrix in="SourceAlpha" type="matrix" values="0 0 0 0 0 0 0 0 0 0 0 0 0 0 0 0 0 0 127 0" result="hardAlpha"/>
            <feOffset/>
            <feGaussianBlur stdDeviation="15"/>
            <feComposite in2="hardAlpha" operator="out"/>
            <feColorMatrix type="matrix" values="0 0 0 0 0 0 0 0 0 0 0 0 0 0 0 0 0 0 0.1 0"/>
            <feBlend mode="normal" in2="BackgroundImageFix" result="effect1_dropShadow_48_6508"/>
            <feBlend mode="normal" in="SourceGraphic" in2="effect1_dropShadow_48_6508" result="shape"/>
        </filter>
        <linearGradient id="paint0_linear_48_6508" x1="5.16253" y1="11.4797" x2="603.096" y2="79.8176" gradientUnits="userSpaceOnUse">
            <stop stop-color="#0E1924"/>
            <stop offset="1" stop-color="#215663"/>
        </linearGradient>
        <linearGradient id="paint1_linear_48_6508" x1="69.8823" y1="-46.5001" x2="563.405" y2="-213.328" gradientUnits="userSpaceOnUse">
            <stop stop-color="#0E1924"/>
            <stop offset="1" stop-color="#375CE7"/>
        </linearGradient>
    </defs>
</svg>
