<svg width="1380" height="380" viewBox="0 0 1380 380" fill="none" xmlns="http://www.w3.org/2000/svg">
    <mask id="mask0_30_1043" style="mask-type:alpha" maskUnits="userSpaceOnUse" x="30" y="30" width="1320" height="320">
        <rect width="1320" height="320" rx="25" transform="matrix(-1 0 0 1 1350 30)" fill="url(#paint0_linear_30_1043)"/>
    </mask>
    <g mask="url(#mask0_30_1043)">
        <g filter="url(#filter0_d_30_1043)">
            <rect width="1320" height="320" rx="15" transform="matrix(-1 0 0 1 1350 30)" fill="url(#paint1_linear_30_1043)"/>
        </g>
        <path d="M139.487 397.385C134.239 398.47 128.811 396.673 125.248 392.67L107.481 372.714C103.918 368.712 102.761 363.112 104.445 358.025L112.844 332.661C114.529 327.574 118.8 323.772 124.048 322.687L150.213 317.279C155.461 316.194 160.889 317.991 164.452 321.994L182.219 341.949C185.782 345.952 186.94 351.552 185.255 356.639L176.856 382.003C175.171 387.09 170.901 390.892 165.653 391.977L139.487 397.385Z" fill="#1A2C5D"/>
        <path d="M55.4832 355.38C50.2352 356.465 44.8071 354.667 41.2436 350.665L23.4773 330.709C19.9139 326.707 18.7565 321.107 20.4411 316.02L28.84 290.656C30.5247 285.569 34.7954 281.766 40.0434 280.682L66.2086 275.273C71.4567 274.189 76.8848 275.986 80.4482 279.989L98.2145 299.944C101.778 303.947 102.935 309.547 101.251 314.634L92.8518 339.998C91.1672 345.085 86.8965 348.887 81.6485 349.972L55.4832 355.38Z" fill="#1A2C5D"/>
        <path d="M130.898 303.834C125.65 304.919 120.222 303.122 116.658 299.119L98.8919 279.163C95.3285 275.161 94.171 269.561 95.8557 264.474L104.255 239.11C105.939 234.023 110.21 230.22 115.458 229.136L141.623 223.728C146.871 222.643 152.299 224.44 155.863 228.443L173.629 248.398C177.193 252.401 178.35 258.001 176.665 263.088L168.266 288.452C166.582 293.539 162.311 297.341 157.063 298.426L130.898 303.834Z" fill="#1A2C5D"/>
        <path d="M46.8936 259.923C41.6456 261.007 36.2175 259.21 32.654 255.207L14.8877 235.252C11.3243 231.249 10.1669 225.65 11.8515 220.562L20.2505 195.198C21.9351 190.111 26.2058 186.309 31.4538 185.224L57.619 179.816C62.8671 178.731 68.2952 180.529 71.8586 184.531L89.6249 204.487C93.1884 208.489 94.3458 214.089 92.6612 219.176L84.2622 244.54C82.5776 249.627 78.3069 253.43 73.0589 254.514L46.8936 259.923Z" fill="#1A2C5D"/>
        <path d="M118.881 202.166C113.633 203.251 108.205 201.453 104.641 197.451L86.8751 177.495C83.3116 173.493 82.1542 167.893 83.8388 162.806L92.2378 137.442C93.9224 132.354 98.1931 128.552 103.441 127.468L129.606 122.059C134.854 120.975 140.282 122.772 143.846 126.775L161.612 146.73C165.176 150.733 166.333 156.332 164.648 161.42L156.25 186.784C154.565 191.871 150.294 195.673 145.046 196.758L118.881 202.166Z" fill="#1A2C5D"/>
        <path d="M34.8768 160.161C29.6287 161.246 24.2006 159.448 20.6372 155.446L2.8709 135.49C-0.692539 131.487 -1.84995 125.888 -0.165346 120.8L8.2336 95.4366C9.91821 90.3493 14.1889 86.5472 19.437 85.4624L45.6022 80.0542C50.8502 78.9694 56.2783 80.7669 59.8418 84.7695L77.6081 104.725C81.1715 108.728 82.3289 114.327 80.6443 119.415L72.2454 144.778C70.5608 149.866 66.2901 153.668 61.042 154.753L34.8768 160.161Z" fill="#1A2C5D"/>
        <path d="M110.291 108.615C105.043 109.7 99.6152 107.902 96.0517 103.9L78.2855 83.9441C74.722 79.9415 73.5646 74.3419 75.2492 69.2546L83.6482 43.8907C85.3328 38.8034 89.6035 35.0013 94.8515 33.9165L121.017 28.5083C126.265 27.4235 131.693 29.221 135.256 33.2236L153.023 53.1792C156.586 57.1818 157.743 62.7814 156.059 67.8687L147.66 93.2326C145.975 98.3199 141.705 102.122 136.457 103.207L110.291 108.615Z" fill="#1A2C5D"/>
        <path d="M26.2872 64.7036C21.0391 65.7884 15.611 63.9909 12.0476 59.9884L-5.7187 40.0327C-9.28214 36.0301 -10.4396 30.4305 -8.75495 25.3432L-0.355995 -0.0206507C1.32861 -5.10797 5.59931 -8.91012 10.8474 -9.99486L37.0126 -15.4031C42.2606 -16.4878 47.6887 -14.6904 51.2522 -10.6878L69.0185 9.26781C72.5819 13.2704 73.7393 18.87 72.0547 23.9573L63.6558 49.3212C61.9712 54.4085 57.7005 58.2107 52.4524 59.2954L26.2872 64.7036Z" fill="#1A2C5D"/>
        <path d="M419.65 312.127C417.96 317.212 413.685 321.01 408.436 322.089L382.265 327.47C377.016 328.549 371.589 326.746 368.03 322.74L350.285 302.765C346.726 298.759 345.574 293.158 347.264 288.072L355.69 262.717C357.38 257.632 361.655 253.834 366.904 252.755L393.075 247.374C398.324 246.295 403.75 248.098 407.309 252.105L425.055 272.079C428.614 276.086 429.765 281.686 428.075 286.772L419.65 312.127Z" fill="#1A2C5D"/>
        <path d="M341.216 363.796C339.526 368.881 335.252 372.679 330.003 373.758L303.832 379.139C298.582 380.218 293.156 378.415 289.597 374.408L271.852 354.434C268.293 350.428 267.141 344.827 268.831 339.741L277.257 314.386C278.947 309.301 283.221 305.503 288.471 304.424L314.642 299.043C319.891 297.964 325.317 299.767 328.876 303.773L346.621 323.748C350.181 327.754 351.332 333.355 349.642 338.441L341.216 363.796Z" fill="#1A2C5D"/>
        <path d="M334.377 272.702C332.687 277.787 328.412 281.585 323.163 282.664L296.992 288.045C291.743 289.124 286.316 287.321 282.757 283.315L265.012 263.34C261.453 259.334 260.301 253.733 261.991 248.647L270.417 223.292C272.107 218.207 276.382 214.409 281.631 213.33L307.802 207.949C313.051 206.87 318.477 208.673 322.036 212.68L339.782 232.654C343.341 236.66 344.492 242.261 342.802 247.347L334.377 272.702Z" fill="#1A2C5D"/>
        <path d="M254.294 323.413C252.604 328.499 248.329 332.296 243.08 333.375L216.909 338.756C211.66 339.835 206.233 338.032 202.674 334.026L184.929 314.051C181.37 310.045 180.218 304.444 181.908 299.359L190.334 274.004C192.024 268.918 196.299 265.12 201.548 264.041L227.719 258.661C232.968 257.581 238.394 259.385 241.953 263.391L259.699 283.365C263.258 287.372 264.409 292.972 262.719 298.058L254.294 323.413Z" fill="#1A2C5D"/>
    </g>
    <defs>
        <filter id="filter0_d_30_1043" x="0" y="0" width="1380" height="380" filterUnits="userSpaceOnUse" color-interpolation-filters="sRGB">
            <feFlood flood-opacity="0" result="BackgroundImageFix"/>
            <feColorMatrix in="SourceAlpha" type="matrix" values="0 0 0 0 0 0 0 0 0 0 0 0 0 0 0 0 0 0 127 0" result="hardAlpha"/>
            <feOffset/>
            <feGaussianBlur stdDeviation="15"/>
            <feComposite in2="hardAlpha" operator="out"/>
            <feColorMatrix type="matrix" values="0 0 0 0 0 0 0 0 0 0 0 0 0 0 0 0 0 0 0.1 0"/>
            <feBlend mode="normal" in2="BackgroundImageFix" result="effect1_dropShadow_30_1043"/>
            <feBlend mode="normal" in="SourceGraphic" in2="effect1_dropShadow_30_1043" result="shape"/>
        </filter>
        <linearGradient id="paint0_linear_30_1043" x1="18.9293" y1="11.4797" x2="1908.2" y2="803.207" gradientUnits="userSpaceOnUse">
            <stop stop-color="#0E1924"/>
            <stop offset="1" stop-color="#215663"/>
        </linearGradient>
        <linearGradient id="paint1_linear_30_1043" x1="629.705" y1="-4.90342e-05" x2="1960.86" y2="798.887" gradientUnits="userSpaceOnUse">
            <stop stop-color="#0E1924"/>
            <stop offset="1" stop-color="#375CE7"/>
        </linearGradient>
    </defs>
</svg>
