<svg width="20" height="19" viewBox="0 0 20 19" fill="none" xmlns="http://www.w3.org/2000/svg">
    <path d="M12.8738 9.50503C12.8738 10.1266 12.6888 10.7342 12.3423 11.251C11.9958 11.7679 11.5033 12.1707 10.927 12.4085C10.3508 12.6464 9.71671 12.7086 9.10498 12.5874C8.49325 12.4661 7.93134 12.1668 7.4903 11.7273C7.04927 11.2878 6.74893 10.7278 6.62725 10.1181C6.50557 9.50852 6.56802 8.87663 6.8067 8.30237C7.04539 7.72811 7.44958 7.23727 7.96818 6.89194C8.48678 6.54662 9.09649 6.3623 9.72021 6.3623C10.5566 6.3623 11.3587 6.69341 11.9501 7.28279C12.5415 7.87216 12.8738 8.67153 12.8738 9.50503Z" fill="#375CE7"/>
    <path d="M15.0458 0.00878906H4.39415C3.27941 0.00993658 2.21066 0.451752 1.42243 1.23728C0.634187 2.02282 0.190849 3.0879 0.189697 4.1988V14.8139C0.190849 15.9248 0.634187 16.9898 1.42243 17.7754C2.21066 18.5609 3.27941 19.0027 4.39415 19.0039H15.0458C16.1605 19.0027 17.2293 18.5609 18.0175 17.7754C18.8057 16.9898 19.2491 15.9248 19.2502 14.8139V4.1988C19.2491 3.0879 18.8057 2.02282 18.0175 1.23728C17.2293 0.451752 16.1605 0.00993658 15.0458 0.00878906ZM9.71997 14.7471C8.68086 14.7464 7.66526 14.4388 6.80156 13.863C5.93785 13.2873 5.26481 12.4693 4.86747 11.5124C4.47014 10.5556 4.36636 9.50282 4.56925 8.4872C4.77214 7.47159 5.27259 6.53871 6.00736 5.80647C6.74212 5.07423 7.67821 4.57549 8.69733 4.3733C9.71644 4.1711 10.7728 4.27453 11.733 4.6705C12.6931 5.06647 13.5139 5.73721 14.0917 6.59794C14.6694 7.45868 14.9781 8.47079 14.9788 9.50633C14.9781 10.8961 14.4238 12.2287 13.4378 13.2113C12.4517 14.194 11.1145 14.7464 9.71997 14.7471ZM15.7461 4.55165C15.5382 4.55165 15.3351 4.49023 15.1622 4.37516C14.9894 4.26008 14.8547 4.09651 14.7752 3.90515C14.6957 3.71378 14.6748 3.50321 14.7154 3.30006C14.7559 3.0969 14.856 2.91029 15.003 2.76383C15.15 2.61736 15.3372 2.51762 15.5411 2.47721C15.7449 2.4368 15.9562 2.45754 16.1483 2.5368C16.3403 2.61607 16.5044 2.7503 16.6199 2.92253C16.7354 3.09475 16.797 3.29723 16.797 3.50437C16.7961 3.78152 16.6849 4.04702 16.488 4.24267C16.291 4.43833 16.0242 4.54819 15.7461 4.54819V4.55165Z" fill="#375CE7"/>
</svg>
