<svg width="20" height="19" viewBox="0 0 20 19" fill="none" xmlns="http://www.w3.org/2000/svg">
    <path d="M19.3252 19.002H19.3295V12.0351C19.3295 8.62712 18.5936 6.00196 14.5953 6.00196C13.8441 5.97372 13.0994 6.1493 12.4406 6.50996C11.7817 6.87062 11.2335 7.40281 10.8545 8.04972H10.7988V6.32014H7.01196V19.0012H10.9589V12.7218C10.9589 11.0685 11.2738 9.4698 13.3278 9.4698C15.3521 9.4698 15.3826 11.3563 15.3826 12.8275V19.002H19.3252Z" fill="#375CE7"/>
    <path d="M0.590088 6.32129H4.53878V18.9988H0.590088V6.32129Z" fill="#375CE7"/>
    <path d="M2.55993 0.00881258C2.1043 0.00675561 1.65832 0.139655 1.27861 0.390641C0.898903 0.641627 0.602584 0.999383 0.427265 1.4185C0.251946 1.83762 0.205534 2.29919 0.293918 2.74464C0.382303 3.19009 0.6015 3.59933 0.923686 3.92041C1.24587 4.24149 1.65652 4.45993 2.1035 4.54801C2.55049 4.63609 3.01366 4.58984 3.43422 4.41512C3.85478 4.24041 4.21377 3.94511 4.46562 3.5667C4.71747 3.1883 4.85083 2.74385 4.84876 2.28978C4.84853 1.6849 4.60731 1.10486 4.17812 0.677147C3.74893 0.249432 3.1669 0.00904236 2.55993 0.00881258Z" fill="#375CE7"/>
</svg>
