<svg width="14" height="18" viewBox="0 0 14 18" fill="none" xmlns="http://www.w3.org/2000/svg">
    <path d="M11.9504 2.80716C11.3004 2.16866 10.5286 1.66217 9.67932 1.31662C8.82999 0.971067 7.91969 0.793213 7.00039 0.793213C6.08108 0.793213 5.17078 0.971067 4.32145 1.31662C3.47213 1.66217 2.70041 2.16866 2.05037 2.80716C0.737538 4.09666 0 5.84561 0 7.66924C0 9.49288 0.737538 11.2418 2.05037 12.5313L6.67592 17.0747C6.76192 17.1592 6.87855 17.2066 7.00016 17.2066C7.12177 17.2066 7.2384 17.1592 7.3244 17.0747L11.95 12.5313C13.2626 11.2417 14 9.49282 14 7.66924C14 5.84567 13.263 4.09676 11.9504 2.80716ZM9.34091 9.96729C8.87827 10.4219 8.28877 10.7315 7.64697 10.857C7.00516 10.9825 6.33987 10.9183 5.73526 10.6723C5.13064 10.4264 4.61385 10.0099 4.25026 9.47547C3.88666 8.94104 3.69259 8.3127 3.69259 7.66992C3.69259 7.02714 3.88666 6.3988 4.25026 5.86437C4.61385 5.32994 5.13064 4.91342 5.73526 4.66751C6.33987 4.42159 7.00516 4.35731 7.64697 4.48281C8.28877 4.60831 8.87827 4.91794 9.34091 5.37255C9.64932 5.67357 9.89407 6.03152 10.0611 6.42582C10.2281 6.82012 10.314 7.24296 10.314 7.67001C10.3139 8.09707 10.2279 8.5199 10.0608 8.91416C9.89374 9.30843 9.64938 9.66634 9.34091 9.96729Z" fill="white"/>
</svg>
