<svg width="14" height="17" viewBox="0 0 14 17" fill="none" xmlns="http://www.w3.org/2000/svg">
    <path d="M11.9504 2.01394C11.3004 1.37544 10.5286 0.86896 9.67932 0.523407C8.82999 0.177854 7.91969 0 7.00039 0C6.08108 0 5.17078 0.177854 4.32145 0.523407C3.47213 0.86896 2.70041 1.37544 2.05037 2.01394C0.737538 3.30345 0 5.05239 0 6.87603C0 8.69967 0.737538 10.4486 2.05037 11.7381L6.67592 16.2815C6.76192 16.366 6.87855 16.4134 7.00016 16.4134C7.12177 16.4134 7.2384 16.366 7.3244 16.2815L11.95 11.7381C13.2626 10.4485 14 8.69961 14 6.87603C14 5.05246 13.263 3.30355 11.9504 2.01394ZM9.34091 9.17408C8.87827 9.62868 8.28877 9.93832 7.64697 10.0638C7.00516 10.1893 6.33987 10.125 5.73526 9.87912C5.13064 9.63321 4.61385 9.21669 4.25026 8.68226C3.88666 8.14783 3.69259 7.51949 3.69259 6.87671C3.69259 6.23393 3.88666 5.60559 4.25026 5.07116C4.61385 4.53673 5.13064 4.12021 5.73526 3.87429C6.33987 3.62838 7.00516 3.5641 7.64697 3.6896C8.28877 3.8151 8.87827 4.12473 9.34091 4.57934C9.64932 4.88035 9.89407 5.23831 10.0611 5.63261C10.2281 6.0269 10.314 6.44975 10.314 6.8768C10.3139 7.30386 10.2279 7.72669 10.0608 8.12095C9.89374 8.51521 9.64938 8.87312 9.34091 9.17408Z" fill="#0E1924"/>
</svg>
