<svg width="14" height="12" viewBox="0 0 14 12" fill="none" xmlns="http://www.w3.org/2000/svg">
    <path d="M1.54642 11.5C1.11814 11.5 0.753329 11.3542 0.451998 11.0626C0.150666 10.771 0 10.418 0 10.0036V2.0123C0 1.59349 0.150666 1.23675 0.451998 0.942053C0.753329 0.647351 1.11814 0.5 1.54642 0.5H12.4371C12.8699 0.5 13.2386 0.647351 13.5432 0.942053C13.8477 1.23675 14 1.59349 14 2.0123V10.0036C14 10.418 13.8477 10.771 13.5432 11.0626C13.2386 11.3542 12.8699 11.5 12.4371 11.5H1.54642ZM6.99177 6.64472C7.06855 6.64472 7.13984 6.63411 7.20564 6.61288C7.27145 6.59165 7.3435 6.55955 7.42179 6.51657L12.2068 3.41317C12.2617 3.38664 12.3137 3.3349 12.3631 3.25796C12.4125 3.18102 12.4371 3.09338 12.4371 2.99506C12.4371 2.81074 12.3467 2.65924 12.1657 2.54056C11.9847 2.42186 11.801 2.42619 11.6146 2.55355L6.99177 5.48263L2.38543 2.55355C2.19898 2.43681 2.01253 2.42619 1.82609 2.52171C1.63964 2.61722 1.54642 2.77026 1.54642 2.98083C1.54642 3.0749 1.57383 3.15986 1.62867 3.2357C1.68351 3.31156 1.73938 3.37106 1.79629 3.4142L6.5621 6.51659C6.64017 6.55956 6.7121 6.59165 6.77791 6.61288C6.84371 6.63411 6.915 6.64472 6.99177 6.64472Z" fill="white"/>
</svg>
