<svg width="14" height="16" viewBox="0 0 14 16" fill="none" xmlns="http://www.w3.org/2000/svg">
    <path d="M13.3215 11.3663L11.2891 9.93921C11.0233 9.75294 10.7127 9.65472 10.3905 9.65472C9.87832 9.65472 9.39749 9.90719 9.10461 10.3296L8.63282 11.0091C7.84211 10.4762 6.9598 9.732 6.1187 8.88684C5.27775 8.04167 4.53743 7.15494 4.00728 6.36027L4.68311 5.88612C5.02761 5.64504 5.25768 5.28388 5.33075 4.86946C5.40366 4.45534 5.31175 4.03692 5.07157 3.69054L3.65191 1.64798C3.35505 1.22124 2.87606 0.966309 2.37042 0.966309C2.19518 0.966309 2.02331 0.997406 1.85972 1.05806C1.67391 1.12703 1.50082 1.2117 1.3311 1.31885L1.05047 1.51744C0.980318 1.57224 0.915064 1.63228 0.852567 1.69509C0.510213 2.03901 0.267271 2.47437 0.130176 2.98916C-0.454813 5.19305 0.994411 8.52568 3.73631 11.2813C6.03889 13.5954 8.80515 15.033 10.9553 15.0333H10.9555C11.3237 15.0333 11.6708 14.9902 11.9873 14.9052C12.4995 14.7676 12.9327 14.5234 13.2752 14.1792C13.3374 14.1167 13.3968 14.0511 13.4606 13.9683L13.6583 13.6847C13.755 13.5295 13.8391 13.3556 13.9086 13.1675C14.1477 12.5178 13.9063 11.777 13.3215 11.3663Z" fill="#0E1924"/>
</svg>
