<svg width="14" height="16" viewBox="0 0 14 16" fill="none" xmlns="http://www.w3.org/2000/svg">
    <path d="M13.3215 11.3665L11.2891 9.93946C11.0233 9.75318 10.7127 9.65497 10.3905 9.65497C9.87832 9.65497 9.39749 9.90744 9.10461 10.3299L8.63282 11.0094C7.84211 10.4764 6.9598 9.73225 6.1187 8.88708C5.27775 8.04192 4.53743 7.15519 4.00728 6.36052L4.68311 5.88636C5.02761 5.64528 5.25768 5.28413 5.33075 4.8697C5.40366 4.45559 5.31175 4.03716 5.07157 3.69078L3.65191 1.64823C3.35505 1.22149 2.87606 0.966553 2.37042 0.966553C2.19518 0.966553 2.02331 0.99765 1.85972 1.0583C1.67391 1.12727 1.50082 1.21194 1.3311 1.31909L1.05047 1.51768C0.980318 1.57248 0.915064 1.63252 0.852567 1.69533C0.510213 2.03925 0.267271 2.47461 0.130176 2.98941C-0.454813 5.1933 0.994411 8.52593 3.73631 11.2816C6.03889 13.5957 8.80515 15.0332 10.9553 15.0335H10.9555C11.3237 15.0335 11.6708 14.9904 11.9873 14.9055C12.4995 14.7678 12.9327 14.5237 13.2752 14.1794C13.3374 14.1169 13.3968 14.0514 13.4606 13.9685L13.6583 13.685C13.755 13.5298 13.8391 13.3558 13.9086 13.1677C14.1477 12.5181 13.9063 11.7773 13.3215 11.3665Z" fill="white"/>
</svg>
