<svg width="19" height="21" viewBox="0 0 19 21" fill="none" xmlns="http://www.w3.org/2000/svg">
    <path fill-rule="evenodd" clip-rule="evenodd" d="M4.50003 8C4.50003 4.68629 7.18632 2 10.5 2C13.8137 2 16.5 4.68629 16.5 8C16.5 11.3137 13.8137 14 10.5 14C7.18632 14 4.50003 11.3137 4.50003 8ZM10.5 0C6.08175 0 2.50003 3.58172 2.50003 8C2.50003 10.1326 3.33447 12.0703 4.69467 13.5044L0.231804 18.8598C-0.12176 19.2841 -0.0644362 19.9147 0.359841 20.2682C0.784118 20.6218 1.41468 20.5645 1.76825 20.1402L6.24078 14.7731C7.4741 15.5503 8.93455 16 10.5 16C14.9183 16 18.5 12.4183 18.5 8C18.5 3.58172 14.9183 0 10.5 0Z" fill="#8C8C8C"/>
</svg>
