<svg width="23" height="19" viewBox="0 0 23 19" fill="none" xmlns="http://www.w3.org/2000/svg">
    <path d="M22.5136 0.52955C22.3718 0.361132 22.1936 0.22686 21.9923 0.136781C21.791 0.0467011 21.5719 0.00314603 21.3514 0.00937426C21.0738 0.0132672 20.7994 0.0676208 20.5414 0.169762L1.46959 7.42534C0.457845 7.81201 0.321263 8.38767 0.329963 8.69804C0.338662 9.00841 0.503952 9.57714 1.54006 9.90398L1.55833 9.91005L4.23255 10.673L17.2591 4.04074C17.3982 3.96535 17.5599 3.94236 17.7146 3.97596C17.8693 4.00957 18.0067 4.09752 18.1017 4.22375C18.1967 4.34998 18.243 4.50607 18.232 4.66348C18.2211 4.82089 18.1536 4.96912 18.0421 5.08109L10.7998 12.7502L10.5936 13.5842L13.18 15.6597L16.7641 18.5354L16.7737 18.5424C17.1253 18.8317 17.5637 18.9959 18.0195 19.0088C18.4365 18.992 18.8337 18.8271 19.1394 18.544C19.4451 18.2608 19.6391 17.878 19.6863 17.4647L22.8085 2.08487C22.8788 1.82011 22.8888 1.54304 22.8378 1.27394C22.7867 1.00483 22.676 0.750497 22.5136 0.52955Z" fill="#375CE7"/>
    <path d="M9.55987 12.2638C9.587 12.154 9.64214 12.053 9.71994 11.9707L14.4725 6.94238L5.65381 11.4324L7.65468 17.1396C7.75817 17.4447 7.92674 17.7239 8.14881 17.958L9.55813 12.2681L9.55987 12.2638Z" fill="#375CE7"/>
    <path d="M9.37646 18.4814C9.88475 18.4643 10.368 18.2572 10.7301 17.9014L12.1951 16.5567L10.2421 14.9893L9.37646 18.4814Z" fill="#375CE7"/>
</svg>
