<svg width="115" height="29" viewBox="0 0 115 29" fill="none" xmlns="http://www.w3.org/2000/svg">
<g clip-path="url(#clip0_30_980)">
<path d="M83.3889 13.5068V15.6835C83.389 16.7542 83.0739 17.8012 82.4829 18.693C81.892 19.5849 81.0516 20.2819 80.0671 20.6967C79.0826 21.1115 77.9979 21.2255 76.949 21.0245C75.9002 20.8236 74.9338 20.3165 74.1712 19.567C73.1576 20.5638 71.7945 21.1221 70.3748 21.1221C68.955 21.1221 67.5919 20.5638 66.5783 19.567C65.5647 20.5632 64.202 21.1212 62.7828 21.1212C61.3635 21.1212 60.0008 20.5632 58.9873 19.567C57.9745 20.5643 56.6112 21.1223 55.1918 21.1204H30.246C29.4996 21.1215 28.7611 20.9674 28.0771 20.668C27.9454 20.6097 27.8138 20.5456 27.6898 20.4738C27.4849 21.3748 27.2011 22.2559 26.8416 23.1068C26.7655 23.2841 26.688 23.4589 26.6093 23.6311C26.4802 23.9184 26.3388 24.2006 26.1852 24.4777L25.7611 25.2155L23.7336 28.7379H23.7123L23.1643 28.4213L20.9141 27.1165V27.0932L23.1275 23.2485C23.1468 23.2155 23.1662 23.1825 23.1836 23.1495C24.2574 21.2664 24.8208 19.1342 24.818 16.965V13.5068H28.0791V15.6835C28.0785 15.9693 28.1342 16.2525 28.2428 16.5168C28.3514 16.7811 28.5109 17.0213 28.7121 17.2238C28.9133 17.4263 29.1524 17.587 29.4155 17.6969C29.6787 17.8068 29.9609 17.8636 30.246 17.8641H55.1898C55.7541 17.8472 56.2896 17.6105 56.6827 17.2043C57.0759 16.7982 57.2958 16.2544 57.2958 15.6883C57.2958 15.1223 57.0759 14.5785 56.6827 14.1723C56.2896 13.7662 55.7541 13.5295 55.1898 13.5126H38.9234L36.6441 11.2116L44.3126 3.52232L46.6131 5.82524L42.2154 10.2447H55.1898C56.6279 10.2447 58.007 10.8175 59.0239 11.8371C60.0407 12.8567 60.612 14.2396 60.612 15.6815C60.612 16.2583 60.8405 16.8115 61.2472 17.2193C61.654 17.6272 62.2056 17.8563 62.7808 17.8563C63.3561 17.8563 63.9077 17.6272 64.3144 17.2193C64.7212 16.8115 64.9497 16.2583 64.9497 15.6815V13.5068H68.203V15.6835C68.2198 16.2493 68.4558 16.7862 68.8609 17.1805C69.266 17.5747 69.8083 17.7952 70.3728 17.7952C70.9373 17.7952 71.4796 17.5747 71.8847 17.1805C72.2898 16.7862 72.5258 16.2493 72.5426 15.6835V13.5068H75.7959V15.6835C75.7959 16.2603 76.0244 16.8134 76.4312 17.2213C76.8379 17.6291 77.3896 17.8582 77.9648 17.8582C78.54 17.8582 79.0917 17.6291 79.4984 17.2213C79.9052 16.8134 80.1337 16.2603 80.1337 15.6835V13.5068H83.3889Z" fill="white"/>
<path d="M19.6612 14.4136V14.4349L19.6515 14.4311L19.6612 14.4136Z" fill="white"/>
<path d="M68.2048 8.0699H64.9515V11.332H68.2048V8.0699Z" fill="white"/>
<path d="M28.077 8.0699H24.8237V11.332H28.077V8.0699Z" fill="white"/>
<path d="M83.3888 8.0699H76.8822V11.332H83.3888V8.0699Z" fill="white"/>
<path d="M73.6271 23.2952H67.1205V26.5573H73.6271V23.2952Z" fill="white"/>
<path d="M17.6665 23.301V26.5631H14.4132V28.3903H11.158V26.5631C11.158 26.1345 11.2422 25.7102 11.4058 25.3143C11.5694 24.9184 11.8092 24.5587 12.1115 24.2557C12.4138 23.9528 12.7727 23.7125 13.1676 23.5487C13.5625 23.3849 13.9858 23.3007 14.4132 23.301H17.6665Z" fill="white"/>
<path d="M19.6612 14.4136V14.4349L19.6515 14.4311L19.6612 14.4136Z" fill="white"/>
<path d="M23.7336 28.732L23.7278 28.7417L23.7123 28.732H23.7336Z" fill="white"/>
<path d="M38.933 13.5068H38.9233V13.4971L38.933 13.5068Z" fill="white"/>
<path d="M38.9562 13.5068L38.9446 13.5184L38.933 13.5068H38.9562Z" fill="white"/>
<path d="M38.1751 3.5242L33.5742 8.13756L35.8746 10.4442L40.4755 5.83088L38.1751 3.5242Z" fill="white"/>
<path d="M18.7509 13.5068V15.6835C18.7509 16.2603 18.5224 16.8134 18.1157 17.2213C17.7089 17.6291 17.1573 17.8583 16.582 17.8583C16.0068 17.8583 15.4552 17.6291 15.0484 17.2213C14.6417 16.8134 14.4132 16.2603 14.4132 15.6835V3.52428H11.158V15.6835C11.158 17.1255 11.7292 18.5083 12.7461 19.528C13.7629 20.5476 15.1421 21.1204 16.5801 21.1204C18.0182 21.1204 19.3973 20.5476 20.4142 19.528C21.431 18.5083 22.0023 17.1255 22.0023 15.6835V13.5068H18.7509ZM19.6611 14.4136V14.435V14.4136Z" fill="white"/>
<path d="M9.20217 17.8641V17.9262C9.20166 18.7741 8.86541 19.587 8.26733 20.1863C7.66926 20.7857 6.85832 21.1223 6.01278 21.1223H0V17.8641H4.79473C4.93909 17.8552 5.07461 17.7913 5.17359 17.6856C5.27257 17.5798 5.32754 17.4402 5.32727 17.2951C5.32739 17.1933 5.29995 17.0933 5.24787 17.0058C5.2288 16.9734 5.20676 16.9429 5.18203 16.9146L4.1189 15.3612L3.15066 13.8874L2.98412 13.635C2.85663 13.4609 2.80299 13.2434 2.83492 13.0298C2.86685 12.8163 2.98175 12.624 3.15453 12.4951L4.46166 11.5243C4.63284 11.3969 4.8472 11.3424 5.0582 11.3726C5.26921 11.4028 5.45983 11.5152 5.58869 11.6854V11.6951L8.41789 15.8252L8.71418 16.233C9.02176 16.7221 9.19047 17.286 9.20217 17.8641Z" fill="white"/>
<path d="M5.58283 11.6932C5.45393 11.5224 5.26293 11.4096 5.05146 11.3794C4.83998 11.3493 4.62518 11.4041 4.45386 11.532L3.14674 12.5029C2.97395 12.6318 2.85906 12.824 2.82713 13.0376C2.7952 13.2511 2.84884 13.4687 2.97633 13.6427L3.14286 13.8952L2.45154 12.8796L5.1355 11.0427L5.58283 11.6932Z" fill="white"/>
<path d="M114.64 6.99029L102.566 0.0970874C102.454 0.0334458 102.327 0 102.198 0C102.069 0 101.942 0.0334458 101.83 0.0970874L89.7619 6.99029C89.6506 7.05331 89.558 7.14469 89.4934 7.25518C89.4288 7.36567 89.3945 7.49133 89.3939 7.61942V21.3922C89.3945 21.5203 89.4288 21.646 89.4934 21.7565C89.558 21.867 89.6506 21.9583 89.7619 22.0214L101.83 28.9087C101.942 28.9724 102.069 29.0058 102.198 29.0058C102.327 29.0058 102.454 28.9724 102.566 28.9087L114.64 22.0155C114.751 21.9524 114.843 21.861 114.907 21.7505C114.972 21.64 115.006 21.5143 115.006 21.3864V7.61359C115.005 7.48665 114.97 7.36225 114.906 7.25285C114.842 7.14345 114.75 7.05291 114.64 6.99029ZM93.0616 9.2835C93.0693 9.26948 93.0777 9.25587 93.0868 9.24272L93.0364 9.32816L93.0616 9.2835ZM111.541 18.9515C111.54 19.2208 111.468 19.485 111.332 19.7173C111.196 19.9495 111.001 20.1415 110.767 20.2738L108.213 21.7301C108.213 21.7786 108.213 21.8291 108.224 21.8777C108.236 21.9262 108.224 21.9204 108.224 21.9417C108.225 22.1529 108.186 22.3623 108.11 22.5592C108.004 22.8375 107.828 23.0836 107.599 23.2738C107.312 23.5134 106.957 23.6566 106.585 23.6831C106.212 23.7096 105.841 23.618 105.523 23.4214C105.27 23.2668 105.061 23.0494 104.915 22.7903C104.77 22.5312 104.694 22.239 104.694 21.9417C104.694 21.85 104.702 21.7584 104.717 21.668V21.6311C104.771 21.3386 104.899 21.065 105.089 20.8369C105.327 20.5532 105.646 20.3503 106.003 20.2564C106.36 20.1625 106.738 20.1822 107.084 20.3126C107.154 20.3397 107.222 20.3708 107.289 20.4058L109.913 18.9087V11.0155L106.466 12.9883V16.5165C106.465 16.6446 106.431 16.7701 106.366 16.8806C106.302 16.991 106.209 17.0825 106.098 17.1456L103 18.9087V24.1282C103.001 24.1352 103.001 24.1424 103 24.1495C102.993 24.3535 102.91 24.5474 102.766 24.6917C102.622 24.836 102.428 24.9199 102.225 24.9262H102.155C101.9 24.9224 101.649 24.8557 101.425 24.732L93.6251 20.2816C93.3911 20.1493 93.1962 19.9573 93.0602 19.725C92.9241 19.4928 92.8518 19.2286 92.8505 18.9592V16.0505C92.7937 16.022 92.7395 15.9909 92.6879 15.9573C92.4445 15.8006 92.2443 15.5851 92.1056 15.3307C91.9669 15.0763 91.8941 14.791 91.8939 14.501C91.8941 14.3968 91.9032 14.2929 91.921 14.1903C91.9753 13.8975 92.1033 13.6234 92.2928 13.3942C92.4041 13.2587 92.5346 13.1403 92.6801 13.0427C92.9686 12.8557 93.3048 12.7562 93.6484 12.7562C93.9919 12.7562 94.3281 12.8557 94.6166 13.0427C94.8594 13.1999 95.059 13.4155 95.1973 13.6699C95.3357 13.9242 95.4083 14.2093 95.4086 14.499C95.4088 14.7095 95.37 14.9182 95.2944 15.1146C95.188 15.3928 95.012 15.6389 94.7832 15.8291C94.7296 15.874 94.6733 15.9155 94.6147 15.9534C94.5624 15.9884 94.5082 16.0194 94.454 16.0485V18.9087L101.371 22.8583V18.9087L98.2727 17.1456C98.1614 17.0828 98.0686 16.9914 98.004 16.8809C97.9394 16.7704 97.9051 16.6446 97.9048 16.5165V12.9845L94.8509 11.2369L94.4462 11.0058L93.3289 10.367C93.1534 10.267 93.0227 10.1035 92.9636 9.90994C92.9045 9.71641 92.9216 9.50754 93.0113 9.32621L93.0616 9.24272V9.23107C93.1957 9.02196 93.3784 8.84869 93.5942 8.72621L101.425 4.27184C101.661 4.13756 101.928 4.06698 102.2 4.06698C102.471 4.06698 102.738 4.13756 102.974 4.27184L105.587 5.76311C105.649 5.72763 105.714 5.69649 105.78 5.6699C106.031 5.56397 106.303 5.51729 106.574 5.53349C106.846 5.54969 107.11 5.62833 107.346 5.76332C107.582 5.89831 107.784 6.08602 107.937 6.31192C108.089 6.53783 108.187 6.79585 108.224 7.06602C108.233 7.13496 108.237 7.20433 108.238 7.27379C108.237 7.52793 108.181 7.77883 108.073 8.0087C107.965 8.23857 107.808 8.44177 107.612 8.60388C107.533 8.67107 107.447 8.73087 107.357 8.78253C107.09 8.93573 106.788 9.01657 106.48 9.01711C106.173 9.01764 105.871 8.93783 105.603 8.78556C105.336 8.63328 105.113 8.41378 104.956 8.14869C104.799 7.88361 104.713 7.58207 104.708 7.27379C104.708 7.21928 104.711 7.16484 104.717 7.11068L102.2 5.67767L95.275 9.62718L98.7413 11.6019L101.84 9.83883C101.952 9.77483 102.079 9.74117 102.208 9.74117C102.337 9.74117 102.463 9.77483 102.576 9.83883L105.674 11.6039L108.966 9.72621L109.136 9.62913L110.252 8.99223C110.423 8.89465 110.624 8.86252 110.817 8.90177C111.011 8.94103 111.183 9.04902 111.303 9.20583C111.339 9.25903 111.371 9.31413 111.4 9.37087C111.504 9.58087 111.559 9.81211 111.559 10.0466L111.541 18.9515Z" fill="white"/>
</g>
<defs>
<clipPath id="clip0_30_980">
<rect width="115" height="29" fill="white"/>
</clipPath>
</defs>
</svg>
