<svg width="92" height="23" viewBox="0 0 92 23" fill="none" xmlns="http://www.w3.org/2000/svg">
    <path d="M66.789 10.7151V12.4418C66.7892 13.2911 66.5392 14.1216 66.0704 14.8291C65.6016 15.5365 64.935 16.0894 64.154 16.4185C63.3731 16.7475 62.5127 16.838 61.6806 16.6785C60.8486 16.5191 60.0821 16.1169 59.4771 15.5223C58.6731 16.313 57.5918 16.7559 56.4656 16.7559C55.3394 16.7559 54.2581 16.313 53.454 15.5223C52.65 16.3126 51.5691 16.7552 50.4433 16.7552C49.3174 16.7552 48.2365 16.3126 47.4325 15.5223C46.6291 16.3135 45.5477 16.756 44.4217 16.7546H24.6335C24.0414 16.7554 23.4556 16.6332 22.913 16.3957C22.8086 16.3495 22.7041 16.2986 22.6058 16.2416C22.4433 16.9564 22.2182 17.6553 21.933 18.3303C21.8726 18.471 21.8111 18.6096 21.7487 18.7462C21.6463 18.9741 21.5341 19.198 21.4123 19.4177L21.0758 20.003L19.4675 22.7971H19.4506L19.0159 22.546L17.231 21.511V21.4925L18.9867 18.4427C19.0021 18.4165 19.0175 18.3903 19.0313 18.3642C19.883 16.8704 20.33 15.1791 20.3278 13.4583V10.7151H22.9146V12.4418C22.9142 12.6685 22.9583 12.8931 23.0445 13.1028C23.1306 13.3124 23.2571 13.503 23.4168 13.6636C23.5764 13.8242 23.766 13.9517 23.9747 14.0389C24.1835 14.126 24.4074 14.1711 24.6335 14.1715H44.4202C44.8678 14.1581 45.2925 13.9704 45.6044 13.6482C45.9163 13.326 46.0907 12.8946 46.0907 12.4456C46.0907 11.9966 45.9163 11.5652 45.6044 11.243C45.2925 10.9208 44.8678 10.7331 44.4202 10.7197H31.5168L29.7088 8.89447L35.7918 2.79492L37.6167 4.6217L34.1282 8.1274H44.4202C45.5609 8.1274 46.6549 8.58179 47.4615 9.3906C48.2681 10.1994 48.7213 11.2964 48.7213 12.4402C48.7213 12.8977 48.9025 13.3365 49.2252 13.6601C49.5478 13.9836 49.9854 14.1653 50.4417 14.1653C50.898 14.1653 51.3356 13.9836 51.6583 13.6601C51.9809 13.3365 52.1622 12.8977 52.1622 12.4402V10.7151H54.7429V12.4418C54.7562 12.8906 54.9434 13.3165 55.2648 13.6292C55.5861 13.9419 56.0163 14.1169 56.4641 14.1169C56.9119 14.1169 57.342 13.9419 57.6634 13.6292C57.9847 13.3165 58.1719 12.8906 58.1853 12.4418V10.7151H60.7659V12.4418C60.7659 12.8993 60.9472 13.3381 61.2699 13.6616C61.5925 13.9851 62.0301 14.1669 62.4864 14.1669C62.9427 14.1669 63.3803 13.9851 63.7029 13.6616C64.0256 13.3381 64.2068 12.8993 64.2068 12.4418V10.7151H66.789Z" fill="#0E1924"/>
    <path d="M16.2383 11.4336V11.4498L16.231 11.4468L16.2383 11.4336Z" fill="#0E1924"/>
    <path d="M54.7442 6.40234H52.1646V8.98903H54.7442V6.40234Z" fill="#0E1924"/>
    <path d="M22.9122 6.40234H20.3325V8.98903H22.9122V6.40234Z" fill="#0E1924"/>
    <path d="M66.7888 6.40234H61.6274V8.99003H66.7888V6.40234Z" fill="#0E1924"/>
    <path d="M59.0466 18.4785H53.8853V21.0662H59.0466V18.4785Z" fill="#0E1924"/>
    <path d="M14.6556 18.4824V21.0701H12.0749V22.5195H9.49268V21.0701C9.49268 20.7302 9.55948 20.3935 9.68926 20.0795C9.81905 19.7654 10.0093 19.4801 10.2491 19.2398C10.4889 18.9995 10.7736 18.8089 11.0868 18.679C11.4001 18.549 11.7359 18.4822 12.0749 18.4824H14.6556Z" fill="#0E1924"/>
    <path d="M16.2383 11.4336V11.4498L16.231 11.4468L16.2383 11.4336Z" fill="#0E1924"/>
    <path d="M19.4678 22.793L19.4634 22.8003L19.4517 22.793H19.4678Z" fill="#0E1924"/>
    <path d="M31.5254 10.7144H31.5181V10.707L31.5254 10.7144Z" fill="#0E1924"/>
    <path d="M31.5425 10.7129L31.5332 10.7222L31.5239 10.7129H31.5425Z" fill="#0E1924"/>
    <path d="M30.9233 2.79554L27.2737 6.45508L29.0985 8.28485L32.7481 4.62531L30.9233 2.79554Z" fill="#0E1924"/>
    <path d="M15.5158 10.7135V12.4402C15.5158 12.8977 15.3345 13.3365 15.0119 13.6601C14.6892 13.9836 14.2516 14.1653 13.7953 14.1653C13.339 14.1653 12.9014 13.9836 12.5788 13.6601C12.2561 13.3365 12.0749 12.8977 12.0749 12.4402V2.79492H9.49268V12.4402C9.49268 13.584 9.94583 14.681 10.7524 15.4898C11.5591 16.2986 12.6531 16.753 13.7938 16.753C14.9345 16.753 16.0285 16.2986 16.8351 15.4898C17.6418 14.681 18.0949 13.584 18.0949 12.4402V10.7135H15.5158ZM16.2378 11.4329V11.4498V11.4329Z" fill="#0E1924"/>
    <path d="M7.94072 14.1695V14.2188C7.94032 14.8913 7.67359 15.5362 7.19917 16.0116C6.72475 16.487 6.08147 16.7541 5.41075 16.7541H0.641113V14.1695H4.44453C4.55904 14.1624 4.66654 14.1117 4.74506 14.0279C4.82357 13.944 4.86718 13.8332 4.86696 13.7182C4.86706 13.6374 4.84529 13.558 4.80398 13.4887C4.78885 13.463 4.77137 13.4387 4.75175 13.4163L3.90843 12.184L3.14037 11.015L3.00826 10.8147C2.90713 10.6767 2.86459 10.5041 2.88991 10.3347C2.91524 10.1653 3.00638 10.0128 3.14344 9.91057L4.18032 9.14042C4.31611 9.03942 4.48615 8.99619 4.65353 9.02012C4.82091 9.04406 4.97212 9.13323 5.07434 9.26827V9.27597L7.3186 12.5522L7.55362 12.8756C7.79761 13.2636 7.93145 13.7109 7.94072 14.1695Z" fill="#0E1924"/>
    <path d="M5.06937 9.27556C4.96716 9.14013 4.8157 9.0507 4.64801 9.02676C4.48033 9.00282 4.31 9.04632 4.17416 9.14777L3.13768 9.91762C3.00067 10.0198 2.90956 10.1722 2.88425 10.3416C2.85893 10.5109 2.90146 10.6834 3.00255 10.8214L3.13461 11.0216L2.58643 10.2163L4.71466 8.75977L5.06937 9.27556Z" fill="#0E1924"/>
    <path d="M91.5793 5.54504L82.0016 0.0770145C81.9126 0.0265309 81.812 0 81.7098 0C81.6075 0 81.5069 0.0265309 81.4179 0.0770145L71.8448 5.54504C71.7566 5.59503 71.6832 5.66752 71.6319 5.75517C71.5806 5.84281 71.5534 5.94249 71.553 6.0441V16.9694C71.5534 17.071 71.5806 17.1707 71.6319 17.2583C71.6832 17.3459 71.7566 17.4184 71.8448 17.4684L81.4179 22.9318C81.5069 22.9823 81.6075 23.0088 81.7098 23.0088C81.812 23.0088 81.9126 22.9823 82.0016 22.9318L91.5793 17.4638C91.6673 17.4137 91.7406 17.3412 91.7916 17.2535C91.8426 17.1659 91.8695 17.0662 91.8696 16.9647V6.03947C91.8687 5.93878 91.8414 5.84009 91.7904 5.75332C91.7395 5.66654 91.6666 5.59471 91.5793 5.54504ZM74.4624 7.36412C74.4685 7.353 74.4751 7.34221 74.4823 7.33178L74.4424 7.39955L74.4624 7.36412ZM89.1215 15.0332C89.1205 15.2469 89.0631 15.4565 88.9552 15.6407C88.8473 15.8249 88.6927 15.9772 88.5071 16.0822L86.4809 17.2374C86.4809 17.2759 86.4809 17.3159 86.4901 17.3544C86.4994 17.3929 86.4901 17.3883 86.4901 17.4053C86.4904 17.5728 86.4597 17.7388 86.3995 17.8951C86.3152 18.1158 86.1755 18.311 85.994 18.4619C85.7664 18.652 85.4849 18.7656 85.1894 18.7866C84.894 18.8076 84.5993 18.735 84.3473 18.579C84.1465 18.4563 83.9805 18.2839 83.8654 18.0784C83.7502 17.8728 83.6898 17.641 83.6898 17.4053C83.6897 17.3325 83.6959 17.2598 83.7082 17.1881V17.1588C83.7507 16.9268 83.8523 16.7098 84.0032 16.5288C84.1915 16.3038 84.4448 16.1429 84.7283 16.0684C85.0117 15.9939 85.3112 16.0095 85.5854 16.113C85.641 16.1345 85.6954 16.1591 85.7482 16.1869L87.8296 14.9993V8.73806L85.0953 10.303V13.1017C85.0948 13.2033 85.0675 13.3029 85.0162 13.3905C84.965 13.4781 84.8916 13.5506 84.8035 13.6008L82.3457 14.9993V19.1396C82.3466 19.1453 82.3466 19.151 82.3457 19.1566C82.3407 19.3184 82.2744 19.4722 82.1602 19.5867C82.046 19.7012 81.8926 19.7677 81.7313 19.7727H81.676C81.4733 19.7697 81.2744 19.7168 81.0969 19.6187L74.9094 16.0883C74.7238 15.9834 74.5692 15.8311 74.4612 15.6469C74.3533 15.4626 74.2959 15.253 74.2949 15.0394V12.732C74.2499 12.7094 74.2069 12.6848 74.1659 12.6581C73.9729 12.5338 73.8141 12.3629 73.704 12.1611C73.594 11.9592 73.5362 11.7329 73.5361 11.5029C73.5363 11.4203 73.5435 11.3378 73.5576 11.2564C73.6006 11.0242 73.7022 10.8068 73.8525 10.6249C73.9408 10.5174 74.0443 10.4235 74.1598 10.3461C74.3886 10.1978 74.6553 10.1189 74.9278 10.1189C75.2003 10.1189 75.467 10.1978 75.6959 10.3461C75.8884 10.4708 76.0468 10.6418 76.1565 10.8436C76.2663 11.0454 76.3239 11.2715 76.3241 11.5013C76.3243 11.6683 76.2935 11.8339 76.2335 11.9896C76.1492 12.2104 76.0095 12.4056 75.828 12.5564C75.7855 12.592 75.7409 12.6249 75.6943 12.655C75.6529 12.6827 75.6099 12.7074 75.5668 12.7305V14.9993L81.0538 18.1323V14.9993L78.5961 13.6008C78.5077 13.5509 78.4342 13.4784 78.3829 13.3908C78.3316 13.3031 78.3045 13.2033 78.3042 13.1017V10.2999L75.8817 8.91365L75.5607 8.73036L74.6744 8.22361C74.5351 8.1443 74.4315 8.01458 74.3846 7.86105C74.3378 7.70753 74.3513 7.54185 74.4224 7.39801L74.4624 7.33178V7.32254C74.5687 7.15666 74.7137 7.01921 74.8848 6.92206L81.0969 3.38864C81.2842 3.28212 81.4959 3.22613 81.7113 3.22613C81.9267 3.22613 82.1384 3.28212 82.3257 3.38864L84.398 4.57158C84.4474 4.54344 84.4987 4.51874 84.5516 4.49764C84.7503 4.41361 84.9657 4.37659 85.1811 4.38944C85.3964 4.40229 85.6059 4.46467 85.7934 4.57175C85.9808 4.67883 86.1412 4.82773 86.262 5.00693C86.3828 5.18612 86.4609 5.3908 86.4901 5.60511C86.4969 5.6598 86.5005 5.71483 86.5009 5.76992C86.5005 5.97152 86.4558 6.17055 86.37 6.35289C86.2843 6.53524 86.1596 6.69643 86.0047 6.82502C85.9416 6.87832 85.8737 6.92575 85.802 6.96673C85.5903 7.08825 85.3507 7.15239 85.1068 7.15281C84.8629 7.15323 84.623 7.08993 84.4109 6.96913C84.1988 6.84834 84.0218 6.67423 83.8972 6.46394C83.7727 6.25366 83.7049 6.01447 83.7006 5.76992C83.7008 5.72669 83.7034 5.6835 83.7082 5.64054L81.7113 4.50381L76.2182 7.63675L78.9678 9.20323L81.4256 7.80465C81.5145 7.75387 81.6151 7.72717 81.7174 7.72717C81.8198 7.72717 81.9204 7.75387 82.0093 7.80465L84.4671 9.20477L87.0785 7.71531L87.2137 7.6383L88.0985 7.13308C88.2345 7.05567 88.3938 7.03019 88.5471 7.06132C88.7004 7.09246 88.8373 7.17812 88.9326 7.30251C88.9605 7.34471 88.9862 7.38842 89.0094 7.43344C89.0919 7.60002 89.135 7.78345 89.1353 7.96946L89.1215 15.0332Z" fill="#0E1924"/>
</svg>
