<svg width="25" height="19" viewBox="0 0 25 19" fill="none" xmlns="http://www.w3.org/2000/svg">
    <path d="M10.5117 11.305L14.3169 9.26593L10.5117 7.19043V11.305Z" fill="#375CE7"/>
    <path d="M23.9662 4.49184V4.48057C23.8781 3.43275 23.5101 2.42754 22.9005 1.56932C22.2312 0.826217 21.298 0.371931 20.2985 0.302688L20.1828 0.28795L20.1367 0.282748C16.9448 0.0417335 12.1236 0.00878906 12.0757 0.00878906H12.067C12.0192 0.00878906 7.19533 0.0417335 3.97653 0.282748L3.93564 0.28795L3.82255 0.301821C3.32602 0.338221 2.84167 0.472442 2.39756 0.69671C1.95346 0.920977 1.55842 1.23083 1.23532 1.60833C0.649155 2.4591 0.286348 3.44273 0.180079 4.4693V4.4953C0.173989 4.57593 0 6.57601 0 8.58302V10.46C0 12.4679 0.173989 14.4671 0.173989 14.5512V14.5642C0.264147 15.5995 0.630263 16.592 1.23445 17.439C1.93255 18.1896 2.89775 18.638 3.92346 18.6883C4.02177 18.6996 4.10615 18.71 4.16357 18.7204L4.21924 18.7282C6.06266 18.9102 11.8408 19.0004 12.0853 19.0039H12.1001C12.1488 19.0039 16.9718 18.9709 20.161 18.7299L20.2028 18.7256L20.3376 18.71C20.829 18.6795 21.3091 18.551 21.7497 18.3321C22.1902 18.1132 22.5822 17.8083 22.9022 17.4355C23.4884 16.5848 23.8512 15.6011 23.9575 14.5746V14.5486C23.9644 14.4619 24.1315 12.4679 24.1315 10.4574V8.58302C24.1315 6.57514 23.9575 4.57593 23.9575 4.49184H23.9662ZM15.7817 10.1739L10.4481 13.1536C10.3001 13.2377 10.1319 13.28 9.96167 13.276C9.79139 13.2721 9.62541 13.222 9.48155 13.1311C9.33376 13.0382 9.21234 12.9091 9.12888 12.7561C9.04542 12.6031 9.00271 12.4313 9.00482 12.2572V6.24569C9.00269 6.07093 9.04575 5.89857 9.12986 5.74521C9.21397 5.59185 9.33629 5.46265 9.48503 5.37007C9.62977 5.27932 9.79664 5.22974 9.9676 5.22669C10.1386 5.22363 10.3071 5.26721 10.455 5.35273L15.7887 8.38708C15.9441 8.47972 16.0727 8.61109 16.1618 8.76826C16.2509 8.92543 16.2975 9.103 16.2969 9.28351C16.2962 9.46403 16.2485 9.64128 16.1583 9.79785C16.0682 9.95441 15.9387 10.0849 15.7826 10.1765L15.7817 10.1739Z" fill="#375CE7"/>
</svg>
